dataset
version=1
nRows=25
nColumns=39
inDegrees=no
endheader
time	sternoclavicular_r2	sternoclavicular_r3	unrotscap_r3	unrotscap_r2	acromioclavicular_r2	acromioclavicular_r3	acromioclavicular_r1	unrothum_r1	unrothum_r3	unrothum_r2	elv_angle	shoulder_elv	shoulder1_r2	shoulder_rot	elbow_flexion	pro_sup	deviation	flexion	cmc_abduction	cmc_flexion	mp_flexion	ip_flexion	mcp2_flexion	mcp2_abduction	pm2_flexion	md2_flexion	mcp3_flexion	mcp3_abduction	pm3_flexion	md3_flexion	mcp4_flexion	mcp4_abduction	pm4_flexion	md4_flexion	mcp5_flexion	mcp5_abduction	pm5_flexion	md5_flexion
5.570000	0.046782	-0.355406	0.134806	0.145346	0.038815	0.525616	0.187201	0.150534	0.513585	0.020463	0.190673	0.027437	0.146525	0.146525	0.656932	2.168207	0.000000	0.000000	0.000000	0.000000	0.000000	0.000000	0.000000	0.000000	0.000000	0.000000	0.000000	0.000000	0.000000	0.000000	0.000000	0.000000	0.000000	0.000000	0.000000	0.000000	0.000000	0.000000
5.575000	0.046862	-0.355450	0.134825	0.145561	0.038996	0.525806	0.187361	0.150341	0.513902	0.020771	0.191053	0.027437	0.146525	0.146525	0.656388	2.179597	0.000000	0.000000	0.000000	0.000000	0.000000	0.000000	0.000000	0.000000	0.000000	0.000000	0.000000	0.000000	0.000000	0.000000	0.000000	0.000000	0.000000	0.000000	0.000000	0.000000	0.000000	0.000000
5.580000	0.046948	-0.355498	0.134854	0.145777	0.039175	0.526003	0.187515	0.150141	0.514225	0.021085	0.191440	0.027437	0.146525	0.146525	0.655862	2.191103	0.000000	0.000000	0.000000	0.000000	0.000000	0.000000	0.000000	0.000000	0.000000	0.000000	0.000000	0.000000	0.000000	0.000000	0.000000	0.000000	0.000000	0.000000	0.000000	0.000000	0.000000	0.000000
5.585000	0.047039	-0.355552	0.134893	0.145992	0.039353	0.526209	0.187662	0.149934	0.514554	0.021406	0.191835	0.027437	0.146525	0.146525	0.655356	2.202727	0.000000	0.000000	0.000000	0.000000	0.000000	0.000000	0.000000	0.000000	0.000000	0.000000	0.000000	0.000000	0.000000	0.000000	0.000000	0.000000	0.000000	0.000000	0.000000	0.000000	0.000000	0.000000
5.590000	0.047137	-0.355611	0.134943	0.146206	0.039528	0.526422	0.187800	0.149722	0.514888	0.021733	0.192237	0.027437	0.146525	0.146525	0.654873	2.214466	0.000000	0.000000	0.000000	0.000000	0.000000	0.000000	0.000000	0.000000	0.000000	0.000000	0.000000	0.000000	0.000000	0.000000	0.000000	0.000000	0.000000	0.000000	0.000000	0.000000	0.000000	0.000000
5.595000	0.047239	-0.355674	0.135005	0.146420	0.039700	0.526643	0.187929	0.149503	0.515227	0.022067	0.192647	0.027437	0.146525	0.146525	0.654417	2.226323	0.000000	0.000000	0.000000	0.000000	0.000000	0.000000	0.000000	0.000000	0.000000	0.000000	0.000000	0.000000	0.000000	0.000000	0.000000	0.000000	0.000000	0.000000	0.000000	0.000000	0.000000	0.000000
5.600000	0.047347	-0.355742	0.135080	0.146631	0.039870	0.526871	0.188048	0.149279	0.515570	0.022408	0.193062	0.027437	0.146525	0.146525	0.653993	2.238296	0.000000	0.000000	0.000000	0.000000	0.000000	0.000000	0.000000	0.000000	0.000000	0.000000	0.000000	0.000000	0.000000	0.000000	0.000000	0.000000	0.000000	0.000000	0.000000	0.000000	0.000000	0.000000
5.605000	0.047460	-0.355816	0.135168	0.146841	0.040036	0.527105	0.188156	0.149048	0.515916	0.022754	0.193484	0.027437	0.146525	0.146525	0.653603	2.250386	0.000000	0.000000	0.000000	0.000000	0.000000	0.000000	0.000000	0.000000	0.000000	0.000000	0.000000	0.000000	0.000000	0.000000	0.000000	0.000000	0.000000	0.000000	0.000000	0.000000	0.000000	0.000000
5.610000	0.047578	-0.355894	0.135270	0.147048	0.040198	0.527346	0.188251	0.148812	0.516264	0.023106	0.193912	0.027437	0.146525	0.146525	0.653252	2.262591	0.000000	0.000000	0.000000	0.000000	0.000000	0.000000	0.000000	0.000000	0.000000	0.000000	0.000000	0.000000	0.000000	0.000000	0.000000	0.000000	0.000000	0.000000	0.000000	0.000000	0.000000	0.000000
5.615000	0.047700	-0.355977	0.135386	0.147251	0.040355	0.527594	0.188333	0.148570	0.516614	0.023463	0.194344	0.027437	0.146525	0.146525	0.652944	2.274911	0.000000	0.000000	0.000000	0.000000	0.000000	0.000000	0.000000	0.000000	0.000000	0.000000	0.000000	0.000000	0.000000	0.000000	0.000000	0.000000	0.000000	0.000000	0.000000	0.000000	0.000000	0.000000
5.620000	0.047826	-0.356066	0.135518	0.147451	0.040508	0.527847	0.188400	0.148323	0.516964	0.023826	0.194781	0.027437	0.146525	0.146525	0.652684	2.287346	0.000000	0.000000	0.000000	0.000000	0.000000	0.000000	0.000000	0.000000	0.000000	0.000000	0.000000	0.000000	0.000000	0.000000	0.000000	0.000000	0.000000	0.000000	0.000000	0.000000	0.000000	0.000000
5.625000	0.047955	-0.356159	0.135665	0.147647	0.040656	0.528105	0.188451	0.148071	0.517313	0.024193	0.195221	0.027437	0.146525	0.146525	0.652475	2.299894	0.000000	0.000000	0.000000	0.000000	0.000000	0.000000	0.000000	0.000000	0.000000	0.000000	0.000000	0.000000	0.000000	0.000000	0.000000	0.000000	0.000000	0.000000	0.000000	0.000000	0.000000	0.000000
5.630000	0.048088	-0.356257	0.135830	0.147838	0.040798	0.528368	0.188486	0.147814	0.517661	0.024565	0.195665	0.027437	0.146525	0.146525	0.652323	2.312555	0.000000	0.000000	0.000000	0.000000	0.000000	0.000000	0.000000	0.000000	0.000000	0.000000	0.000000	0.000000	0.000000	0.000000	0.000000	0.000000	0.000000	0.000000	0.000000	0.000000	0.000000	0.000000
5.635000	0.048223	-0.356359	0.136012	0.148023	0.040933	0.528634	0.188502	0.147553	0.518007	0.024941	0.196111	0.027437	0.146525	0.146525	0.652232	2.325326	0.000000	0.000000	0.000000	0.000000	0.000000	0.000000	0.000000	0.000000	0.000000	0.000000	0.000000	0.000000	0.000000	0.000000	0.000000	0.000000	0.000000	0.000000	0.000000	0.000000	0.000000	0.000000
5.640000	0.048360	-0.356467	0.136211	0.148202	0.041062	0.528904	0.188498	0.147287	0.518348	0.025320	0.196559	0.027437	0.146525	0.146525	0.652207	2.338208	0.000000	0.000000	0.000000	0.000000	0.000000	0.000000	0.000000	0.000000	0.000000	0.000000	0.000000	0.000000	0.000000	0.000000	0.000000	0.000000	0.000000	0.000000	0.000000	0.000000	0.000000	0.000000
5.645000	0.048499	-0.356579	0.136430	0.148375	0.041184	0.529177	0.188474	0.147019	0.518684	0.025703	0.197008	0.027437	0.146525	0.146525	0.652252	2.351197	0.000000	0.000000	0.000000	0.000000	0.000000	0.000000	0.000000	0.000000	0.000000	0.000000	0.000000	0.000000	0.000000	0.000000	0.000000	0.000000	0.000000	0.000000	0.000000	0.000000	0.000000	0.000000
5.650000	0.048639	-0.356695	0.136668	0.148540	0.041298	0.529451	0.188427	0.146747	0.519013	0.026088	0.197456	0.027437	0.146525	0.146525	0.652374	2.364293	0.000000	0.000000	0.000000	0.000000	0.000000	0.000000	0.000000	0.000000	0.000000	0.000000	0.000000	0.000000	0.000000	0.000000	0.000000	0.000000	0.000000	0.000000	0.000000	0.000000	0.000000	0.000000
5.655000	0.048779	-0.356817	0.136926	0.148697	0.041404	0.529726	0.188358	0.146473	0.519335	0.026474	0.197904	0.027437	0.146525	0.146525	0.652576	2.377492	0.000000	0.000000	0.000000	0.000000	0.000000	0.000000	0.000000	0.000000	0.000000	0.000000	0.000000	0.000000	0.000000	0.000000	0.000000	0.000000	0.000000	0.000000	0.000000	0.000000	0.000000	0.000000
5.660000	0.048919	-0.356942	0.137205	0.148846	0.041501	0.530002	0.188263	0.146197	0.519647	0.026862	0.198349	0.027437	0.146525	0.146525	0.652865	2.390793	0.000000	0.000000	0.000000	0.000000	0.000000	0.000000	0.000000	0.000000	0.000000	0.000000	0.000000	0.000000	0.000000	0.000000	0.000000	0.000000	0.000000	0.000000	0.000000	0.000000	0.000000	0.000000
5.665000	0.049058	-0.357072	0.137505	0.148985	0.041589	0.530277	0.188142	0.145919	0.519948	0.027251	0.198791	0.027437	0.146525	0.146525	0.653244	2.404193	0.000000	0.000000	0.000000	0.000000	0.000000	0.000000	0.000000	0.000000	0.000000	0.000000	0.000000	0.000000	0.000000	0.000000	0.000000	0.000000	0.000000	0.000000	0.000000	0.000000	0.000000	0.000000
5.670000	0.049196	-0.357206	0.137826	0.149114	0.041668	0.530550	0.187994	0.145640	0.520237	0.027640	0.199230	0.027437	0.146525	0.146525	0.653720	2.417689	0.000000	0.000000	0.000000	0.000000	0.000000	0.000000	0.000000	0.000000	0.000000	0.000000	0.000000	0.000000	0.000000	0.000000	0.000000	0.000000	0.000000	0.000000	0.000000	0.000000	0.000000	0.000000
5.675000	0.049332	-0.357344	0.138171	0.149233	0.041736	0.530820	0.187817	0.145361	0.520511	0.028028	0.199663	0.027437	0.146525	0.146525	0.654298	2.431278	0.000000	0.000000	0.000000	0.000000	0.000000	0.000000	0.000000	0.000000	0.000000	0.000000	0.000000	0.000000	0.000000	0.000000	0.000000	0.000000	0.000000	0.000000	0.000000	0.000000	0.000000	0.000000
5.680000	0.049465	-0.357486	0.138538	0.149340	0.041793	0.531087	0.187610	0.145083	0.520769	0.028414	0.200089	0.027437	0.146525	0.146525	0.654982	2.444957	0.000000	0.000000	0.000000	0.000000	0.000000	0.000000	0.000000	0.000000	0.000000	0.000000	0.000000	0.000000	0.000000	0.000000	0.000000	0.000000	0.000000	0.000000	0.000000	0.000000	0.000000	0.000000
5.685000	0.049594	-0.357632	0.138928	0.149434	0.041839	0.531349	0.187371	0.144806	0.521010	0.028799	0.200509	0.027437	0.146525	0.146525	0.655779	2.458722	0.000000	0.000000	0.000000	0.000000	0.000000	0.000000	0.000000	0.000000	0.000000	0.000000	0.000000	0.000000	0.000000	0.000000	0.000000	0.000000	0.000000	0.000000	0.000000	0.000000	0.000000	0.000000
5.690000	0.049719	-0.357782	0.139343	0.149516	0.041874	0.531604	0.187100	0.144530	0.521231	0.029180	0.200919	0.027437	0.146525	0.146525	0.656693	2.472569	0.000000	0.000000	0.000000	0.000000	0.000000	0.000000	0.000000	0.000000	0.000000	0.000000	0.000000	0.000000	0.000000	0.000000	0.000000	0.000000	0.000000	0.000000	0.000000	0.000000	0.000000	0.000000
